<svg width="31" height="25" viewBox="0 0 31 25" fill="none" xmlns="http://www.w3.org/2000/svg">
<path d="M14.5948 0.182617C7.99885 0.182617 2.65234 5.5549 2.65234 12.1826C2.65234 18.8103 7.99885 24.1826 14.5948 24.1826C21.1907 24.1826 26.5372 18.8103 26.5372 12.1826C26.5372 5.5549 21.1907 0.182617 14.5948 0.182617ZM14.5948 20.1473C10.2137 20.1473 6.66831 16.5766 6.66831 12.1826C6.66831 7.78045 10.2218 4.21794 14.5948 4.21794C18.9758 4.21794 22.5212 7.7886 22.5212 12.1826C22.5212 16.5848 18.9758 20.1473 14.5948 20.1473Z" fill="#2B8CFF"/>
<path d="M6.8552 13.9277C7.30953 15.9576 8.5346 17.7022 10.2059 18.819L7.32576 21.7049C5.76805 20.4984 4.51052 18.9169 3.69922 17.0989L6.8552 13.9277Z" fill="url(#paint0_linear_5660_178240)"/>
<path d="M18.4648 5.22852L21.272 2.22852C23.0244 3.41873 24.4442 5.05732 25.3609 6.98123L22.2942 10.2666C21.7669 8.10624 20.3552 6.2883 18.4648 5.22852Z" fill="url(#paint1_linear_5660_178240)"/>
<path d="M25.9522 8.44892C25.725 7.75599 25.441 7.09566 25.1084 6.46794C24.078 4.56034 22.5447 2.96251 20.6949 1.85381C18.91 0.79403 16.8331 0.182617 14.6101 0.182617C8.30625 0.182617 3.14634 5.09838 2.70823 11.3185C2.69201 11.6038 2.67578 11.8891 2.67578 12.1745C2.67578 14.1962 3.17068 16.0957 4.04689 17.7669C4.1767 18.0196 4.31462 18.2641 4.46877 18.5006C5.68573 20.4652 7.44626 22.0468 9.53943 23.0332C11.0809 23.7587 12.8009 24.1663 14.6101 24.1663C20.0296 24.1663 24.5973 20.5386 26.0576 15.5739C26.374 14.4978 26.5444 13.3565 26.5444 12.1745C26.5363 10.8701 26.3335 9.62284 25.9522 8.44892ZM21.0032 16.7804C19.5753 18.7777 17.2387 20.0821 14.602 20.0821C13.8394 20.0821 13.1092 19.9761 12.4115 19.7723C10.6185 19.2506 9.0851 18.1011 8.06285 16.5848C7.7789 16.1609 7.5355 15.7125 7.34079 15.2397C6.94325 14.294 6.7242 13.2587 6.7242 12.1663C6.7242 11.4326 6.82156 10.7234 7.00816 10.0549C7.93304 6.71251 10.9836 4.25055 14.602 4.25055C15.6891 4.25055 16.7276 4.47066 17.6687 4.87827C19.697 5.7424 21.2953 7.4462 22.0335 9.54131C22.0498 9.59838 22.0741 9.65544 22.0903 9.71251C22.3418 10.487 22.4798 11.3103 22.4798 12.1663C22.4798 13.8864 21.9362 15.4843 21.0032 16.7804Z" fill="#2B8CFF"/>
<path d="M25.9521 8.44892C25.725 7.75599 25.441 7.09566 25.1084 6.46794C24.078 4.56034 22.5447 2.96251 20.6949 1.85381C18.91 0.79403 16.8331 0.182617 14.6101 0.182617C8.30624 0.182617 3.14634 5.09838 2.70823 11.3185C2.69201 11.6038 2.67578 11.8891 2.67578 12.1745C2.67578 14.1962 3.17068 16.0957 4.04689 17.7669C4.1767 18.0196 4.31462 18.2641 4.46877 18.5006C5.68573 20.4652 7.44626 22.0468 9.53943 23.0332C11.0809 23.7587 12.8009 24.1663 14.6101 24.1663C20.0296 24.1663 24.5973 20.5386 26.0576 15.5739C26.374 14.4978 26.5444 13.3565 26.5444 12.1745C26.5363 10.8701 26.3335 9.62284 25.9521 8.44892ZM21.0032 16.7804C19.5753 18.7777 17.2387 20.0821 14.602 20.0821C13.8393 20.0821 13.1092 19.9761 12.4115 19.7723C10.6185 19.2506 9.0851 18.1011 8.06285 16.5848C7.7789 16.1609 7.5355 15.7125 7.34079 15.2397C6.94325 14.294 6.7242 13.2587 6.7242 12.1663C6.7242 11.4326 6.82156 10.7234 7.00816 10.0549C7.93304 6.71251 10.9836 4.25055 14.602 4.25055C15.6891 4.25055 16.7276 4.47066 17.6687 4.87827C19.697 5.7424 21.2952 7.4462 22.0335 9.54131C22.0498 9.59838 22.0741 9.65544 22.0903 9.71251C22.3418 10.487 22.4798 11.3103 22.4798 12.1663C22.4798 13.8864 21.9362 15.4843 21.0032 16.7804Z" fill="#2B8CFF"/>
<path d="M8.07096 16.5852L4.04689 17.7591C3.17068 16.0879 2.67578 14.1885 2.67578 12.1749C2.67578 11.8896 2.68389 11.6042 2.70823 11.3189L7.01627 10.0635C6.82967 10.732 6.73231 11.4412 6.73231 12.1749C6.73231 13.2673 6.95136 14.3026 7.3489 15.2483C7.54362 15.7129 7.78701 16.1613 8.07096 16.5852Z" fill="url(#paint2_linear_5660_178240)"/>
<path d="M26.537 12.1748C26.537 13.3568 26.3666 14.49 26.0502 15.5742L21.1337 17.1883L21.0039 16.7807C21.9288 15.4845 22.4805 13.8949 22.4805 12.1748C22.4805 11.3188 22.3426 10.4954 22.0911 9.72096L25.9448 8.44922C26.3342 9.62313 26.537 10.8704 26.537 12.1748Z" fill="url(#paint3_linear_5660_178240)"/>
<path d="M25.1034 6.46765L22.0367 9.54917C21.2984 7.44591 19.7083 5.75026 17.6719 4.88612L20.6899 1.85352C22.5478 2.96221 24.0731 4.56004 25.1034 6.46765Z" fill="url(#paint4_linear_5660_178240)"/>
<path d="M12.4235 19.7719L9.54332 23.0246C7.45015 22.0382 5.68962 20.4566 4.47266 18.492L7.35279 15.2393C8.26957 17.424 10.1275 19.1115 12.4235 19.7719Z" fill="url(#paint5_linear_5660_178240)"/>
<path d="M3.13164 22.496L0 19.9036L12.8835 4.21068L19.3415 10.9851L27.8684 0.607422L31 3.20797L19.5606 17.1156L13.1107 10.3411L3.13164 22.496Z" fill="#2B8CFF"/>
<path d="M3.13164 22.496L0 19.9036L12.8835 4.21068L19.3415 10.9851L27.8684 0.607422L31 3.20797L19.5606 17.1156L13.1107 10.3411L3.13164 22.496Z" fill="#8ABFFF"/>
<defs>
<linearGradient id="paint0_linear_5660_178240" x1="5.30111" y1="15.8655" x2="8.00289" y2="19.1518" gradientUnits="userSpaceOnUse">
<stop stop-color="#1C3882"/>
<stop offset="1" stop-color="#1C3882" stop-opacity="0"/>
</linearGradient>
<linearGradient id="paint1_linear_5660_178240" x1="24.7874" y1="8.56965" x2="21.0485" y2="5.68952" gradientUnits="userSpaceOnUse">
<stop stop-color="#1C3882"/>
<stop offset="0.9416" stop-color="#1C3882" stop-opacity="0"/>
</linearGradient>
<linearGradient id="paint2_linear_5660_178240" x1="6.17695" y1="14.96" x2="4.39636" y2="10.7978" gradientUnits="userSpaceOnUse">
<stop stop-color="#1E3787" stop-opacity="0.5"/>
<stop offset="0.9996" stop-color="#6190E9" stop-opacity="0"/>
</linearGradient>
<linearGradient id="paint3_linear_5660_178240" x1="23.2464" y1="10.646" x2="24.121" y2="16.176" gradientUnits="userSpaceOnUse">
<stop stop-color="#1E3787" stop-opacity="0.5"/>
<stop offset="0.9996" stop-color="#6190E9" stop-opacity="0"/>
</linearGradient>
<linearGradient id="paint4_linear_5660_178240" x1="23.5458" y1="8.58114" x2="19.164" y2="2.55281" gradientUnits="userSpaceOnUse">
<stop stop-color="#1E3787" stop-opacity="0.5"/>
<stop offset="0.9996" stop-color="#6190E9" stop-opacity="0"/>
</linearGradient>
<linearGradient id="paint5_linear_5660_178240" x1="10.7122" y1="22.31" x2="6.83436" y2="16.975" gradientUnits="userSpaceOnUse">
<stop stop-color="#6190E9" stop-opacity="0"/>
<stop offset="1" stop-color="#1E3787" stop-opacity="0.5"/>
</linearGradient>
</defs>
</svg>
